<?xml version="1.0" encoding="UTF-8"?>
<!DOCTYPE svg PUBLIC "-//W3C//DTD SVG 1.1//EN" "http://www.w3.org/Graphics/SVG/1.1/DTD/svg11.dtd">
<svg xmlns="http://www.w3.org/2000/svg" version="1.1" width="4268px" height="3200px" style="shape-rendering:geometricPrecision; text-rendering:geometricPrecision; image-rendering:optimizeQuality; fill-rule:evenodd; clip-rule:evenodd" xmlns:xlink="http://www.w3.org/1999/xlink">
<g><path style="opacity:0.969" fill="#252f3e" d="M 1951.5,1118.5 C 1965.27,1117.95 1978.93,1118.78 1992.5,1121C 2017.43,1128 2030.6,1144.5 2032,1170.5C 2032.33,1197.83 2032.67,1225.17 2033,1252.5C 2034.61,1261 2037.61,1269 2042,1276.5C 2042.66,1280.03 2041.49,1282.86 2038.5,1285C 2034.5,1287.67 2030.5,1290.33 2026.5,1293C 2023.63,1294.46 2020.63,1294.79 2017.5,1294C 2014.33,1292.17 2011.83,1289.67 2010,1286.5C 2007.5,1282.17 2005,1277.83 2002.5,1273.5C 1979.74,1296.77 1952.74,1303.61 1921.5,1294C 1900.03,1282.22 1890.86,1264.05 1894,1239.5C 1896.94,1219.55 1907.78,1205.72 1926.5,1198C 1940.43,1192.99 1954.76,1191.32 1969.5,1193C 1979.91,1194.08 1990.24,1195.58 2000.5,1197.5C 2000.87,1185.24 1999.37,1173.24 1996,1161.5C 1989.55,1151.02 1980.05,1145.85 1967.5,1146C 1948.62,1145.22 1930.62,1148.89 1913.5,1157C 1910.9,1157.77 1908.4,1157.6 1906,1156.5C 1903.68,1148.44 1904.18,1140.61 1907.5,1133C 1921.43,1125.64 1936.09,1120.8 1951.5,1118.5 Z M 1954.5,1216.5 C 1970.03,1215.79 1985.36,1217.12 2000.5,1220.5C 2002.54,1253.13 1987.21,1270.46 1954.5,1272.5C 1937.4,1271.9 1928.4,1263.07 1927.5,1246C 1928.38,1228.62 1937.38,1218.79 1954.5,1216.5 Z"/></g>
<g><path style="opacity:0.966" fill="#252f3e" d="M 2347.5,1118.5 C 2367.67,1116.81 2387.01,1119.97 2405.5,1128C 2409.17,1129.67 2411.33,1132.5 2412,1136.5C 2412.99,1142.52 2412.49,1148.35 2410.5,1154C 2408.17,1154.67 2405.83,1154.67 2403.5,1154C 2382.94,1144.51 2361.94,1142.84 2340.5,1149C 2331.19,1154.13 2327.69,1161.96 2330,1172.5C 2333.97,1180.12 2340.13,1185.29 2348.5,1188C 2361.77,1192.53 2375.1,1196.87 2388.5,1201C 2415.04,1211.25 2425.54,1230.41 2420,1258.5C 2413.76,1277.07 2401.26,1289.24 2382.5,1295C 2354.7,1301.54 2327.7,1299.21 2301.5,1288C 2298.27,1286.44 2296.1,1283.94 2295,1280.5C 2294.33,1274.83 2294.33,1269.17 2295,1263.5C 2295.37,1262.58 2295.87,1261.75 2296.5,1261C 2298.83,1260.33 2301.17,1260.33 2303.5,1261C 2326.69,1272.45 2350.69,1274.79 2375.5,1268C 2386.54,1262.75 2390.71,1254.25 2388,1242.5C 2384.39,1234.42 2378.22,1229.26 2369.5,1227C 2357.83,1223.33 2346.17,1219.67 2334.5,1216C 2305.61,1206.38 2293.44,1186.55 2298,1156.5C 2303.32,1141.18 2313.49,1130.34 2328.5,1124C 2334.83,1121.67 2341.16,1119.84 2347.5,1118.5 Z"/></g>
<g><path style="opacity:0.97" fill="#252f3e" d="M 2051.5,1123.5 C 2060.84,1123.33 2070.17,1123.5 2079.5,1124C 2081.67,1124.83 2083.17,1126.33 2084,1128.5C 2095.16,1171.46 2106.16,1214.46 2117,1257.5C 2127.02,1214.08 2137.35,1170.75 2148,1127.5C 2149.21,1125.95 2150.71,1124.78 2152.5,1124C 2162.27,1123.05 2171.93,1123.39 2181.5,1125C 2183.04,1126.58 2184.21,1128.41 2185,1130.5C 2195,1173.17 2205,1215.83 2215,1258.5C 2226.16,1216.21 2237.16,1173.88 2248,1131.5C 2249,1128.3 2250.84,1125.8 2253.5,1124C 2262.5,1123.33 2271.5,1123.33 2280.5,1124C 2282.5,1126.84 2283,1130.01 2282,1133.5C 2265.87,1185.56 2249.54,1237.56 2233,1289.5C 2231.83,1290.67 2230.67,1291.83 2229.5,1293C 2219.5,1293.67 2209.5,1293.67 2199.5,1293C 2198.67,1292.17 2197.83,1291.33 2197,1290.5C 2186.02,1248.6 2175.36,1206.6 2165,1164.5C 2155.04,1206.62 2144.71,1248.62 2134,1290.5C 2133.1,1291.7 2131.93,1292.53 2130.5,1293C 2120.45,1293.81 2110.45,1293.64 2100.5,1292.5C 2098.23,1290.29 2096.73,1287.62 2096,1284.5C 2079.99,1232.64 2064.49,1180.64 2049.5,1128.5C 2049.44,1126.49 2050.1,1124.82 2051.5,1123.5 Z"/></g>
<g><path style="opacity:0.954" fill="#fe9900" d="M 2397.5,1333.5 C 2411.82,1333.09 2425.82,1334.92 2439.5,1339C 2441.29,1339.78 2442.79,1340.95 2444,1342.5C 2446.58,1376.41 2436.92,1406.41 2415,1432.5C 2411.19,1436.32 2406.85,1439.32 2402,1441.5C 2399.71,1440.88 2398.54,1439.38 2398.5,1437C 2405.13,1419.78 2410.96,1402.28 2416,1384.5C 2417.9,1377.48 2417.9,1370.48 2416,1363.5C 2412.09,1360.3 2407.59,1358.47 2402.5,1358C 2382.93,1357.05 2363.43,1357.89 2344,1360.5C 2335.56,1360.18 2334.39,1357.01 2340.5,1351C 2358.13,1340.35 2377.13,1334.52 2397.5,1333.5 Z"/></g>
<g><path style="opacity:0.971" fill="#fe9900" d="M 1871.5,1345.5 C 1873.86,1345.34 1876.19,1345.5 1878.5,1346C 2014.66,1421.81 2158.33,1440.48 2309.5,1402C 2334.11,1395.36 2358.11,1387.03 2381.5,1377C 2391.86,1375.36 2396.02,1379.52 2394,1389.5C 2368.86,1409.49 2341.03,1424.99 2310.5,1436C 2194.87,1478.04 2081.2,1473.37 1969.5,1422C 1932.76,1404.24 1899.59,1381.41 1870,1353.5C 1869.11,1350.5 1869.61,1347.84 1871.5,1345.5 Z"/></g>
<g><path style="opacity:0.987" fill="#232f3e" d="M 820.5,1563.5 C 849.215,1561.05 876.881,1565.21 903.5,1576C 941.86,1595.72 965.027,1626.88 973,1669.5C 979.17,1703.45 976.837,1736.79 966,1769.5C 948.679,1812.48 917.179,1838.31 871.5,1847C 833.739,1854.11 797.739,1849.11 763.5,1832C 730.616,1811.43 710.783,1781.93 704,1743.5C 697.461,1708.43 700.128,1674.1 712,1640.5C 733.303,1594.05 769.469,1568.38 820.5,1563.5 Z M 828.5,1624.5 C 865.589,1622.09 887.756,1639.09 895,1675.5C 898.333,1696.5 898.333,1717.5 895,1738.5C 886.549,1777.28 862.716,1793.44 823.5,1787C 805.722,1782.56 793.556,1771.73 787,1754.5C 783.268,1744.84 780.934,1734.84 780,1724.5C 779.333,1712.17 779.333,1699.83 780,1687.5C 781.221,1666.9 789.054,1649.4 803.5,1635C 811.207,1629.81 819.54,1626.31 828.5,1624.5 Z"/></g>
<g><path style="opacity:0.985" fill="#232f3e" d="M 597.5,1564.5 C 619.856,1563.93 641.856,1566.43 663.5,1572C 670.96,1573.12 675.46,1577.29 677,1584.5C 677.667,1598.5 677.667,1612.5 677,1626.5C 676.262,1631.71 673.262,1634.04 668,1633.5C 656.608,1631.02 645.108,1629.19 633.5,1628C 575.934,1622.74 547.267,1648.91 547.5,1706.5C 546.407,1726.8 551.24,1745.46 562,1762.5C 577.56,1779.36 596.893,1787.03 620,1785.5C 637.779,1785.27 655.279,1782.94 672.5,1778.5C 677.46,1778.96 680.294,1781.63 681,1786.5C 681.918,1801.88 681.584,1817.21 680,1832.5C 678.437,1835.73 675.937,1837.9 672.5,1839C 627.928,1852.27 583.594,1851.6 539.5,1837C 502.606,1820.43 480.106,1792.26 472,1752.5C 463.978,1713.7 466.645,1675.7 480,1638.5C 497.105,1601.4 525.605,1578.24 565.5,1569C 576.245,1566.99 586.912,1565.49 597.5,1564.5 Z"/></g>
<g><path style="opacity:0.986" fill="#232f3e" d="M 1035.5,1569.5 C 1056.84,1569.33 1078.17,1569.5 1099.5,1570C 1102.82,1570.06 1105.66,1571.23 1108,1573.5C 1129.76,1620.69 1151.26,1668.03 1172.5,1715.5C 1193.98,1668.53 1215.48,1621.53 1237,1574.5C 1239.45,1571.53 1242.61,1570.03 1246.5,1570C 1267.17,1569.33 1287.83,1569.33 1308.5,1570C 1312.98,1570.14 1315.81,1572.31 1317,1576.5C 1317.99,1664.22 1317.66,1751.89 1316,1839.5C 1313.96,1841.6 1311.46,1842.77 1308.5,1843C 1292.5,1843.67 1276.5,1843.67 1260.5,1843C 1256.06,1842.87 1253.23,1840.7 1252,1836.5C 1251.67,1783.83 1251.33,1731.17 1251,1678.5C 1236.33,1711.17 1221.67,1743.83 1207,1776.5C 1204.55,1779.47 1201.39,1780.97 1197.5,1781C 1180.17,1781.67 1162.83,1781.67 1145.5,1781C 1141.61,1780.97 1138.45,1779.47 1136,1776.5C 1121.06,1743.62 1106.39,1710.62 1092,1677.5C 1091.67,1730.83 1091.33,1784.17 1091,1837.5C 1089.27,1840.95 1086.44,1842.79 1082.5,1843C 1066.5,1843.67 1050.5,1843.67 1034.5,1843C 1029.5,1842.92 1026.66,1840.42 1026,1835.5C 1025.33,1749.17 1025.33,1662.83 1026,1576.5C 1027.71,1572.07 1030.87,1569.74 1035.5,1569.5 Z"/></g>
<g><path style="opacity:0.986" fill="#232f3e" d="M 1384.5,1569.5 C 1405.84,1569.33 1427.17,1569.5 1448.5,1570C 1452.39,1570.03 1455.55,1571.53 1458,1574.5C 1479.33,1621.83 1500.67,1669.17 1522,1716.5C 1543.41,1668.68 1565.08,1621.02 1587,1573.5C 1589.34,1571.23 1592.18,1570.06 1595.5,1570C 1617.88,1569.05 1640.21,1569.39 1662.5,1571C 1664.05,1572.21 1665.22,1573.71 1666,1575.5C 1666.99,1663.58 1666.66,1751.58 1665,1839.5C 1663.44,1841.77 1661.28,1842.93 1658.5,1843C 1642.17,1843.67 1625.83,1843.67 1609.5,1843C 1606.26,1842.77 1603.76,1841.27 1602,1838.5C 1600.68,1785.22 1600.01,1731.89 1600,1678.5C 1585.94,1710.95 1571.61,1743.28 1557,1775.5C 1554.41,1779.05 1550.91,1780.88 1546.5,1781C 1529.17,1781.67 1511.83,1781.67 1494.5,1781C 1491.18,1780.94 1488.34,1779.77 1486,1777.5C 1470.81,1744.28 1455.81,1710.95 1441,1677.5C 1440.67,1730.83 1440.33,1784.17 1440,1837.5C 1438.62,1840.88 1436.12,1842.72 1432.5,1843C 1414.78,1843.94 1397.11,1843.61 1379.5,1842C 1376.73,1840.24 1375.23,1837.74 1375,1834.5C 1374.33,1749.17 1374.33,1663.83 1375,1578.5C 1376.13,1573.2 1379.3,1570.2 1384.5,1569.5 Z"/></g>
<g><path style="opacity:0.99" fill="#232f3e" d="M 1731.5,1569.5 C 1750.84,1569.33 1770.17,1569.5 1789.5,1570C 1794.9,1569.77 1798.07,1572.27 1799,1577.5C 1799.02,1638.54 1799.69,1699.54 1801,1760.5C 1807.35,1780.2 1821.02,1789.53 1842,1788.5C 1864.58,1789.56 1878.58,1779.23 1884,1757.5C 1884.98,1696.11 1885.98,1634.78 1887,1573.5C 1889.04,1571.4 1891.54,1570.23 1894.5,1570C 1913.83,1569.33 1933.17,1569.33 1952.5,1570C 1955.61,1569.95 1958.11,1571.11 1960,1573.5C 1961.66,1635.75 1961.99,1698.08 1961,1760.5C 1953.92,1806.92 1927.42,1835.42 1881.5,1846C 1855.17,1850.67 1828.83,1850.67 1802.5,1846C 1754.78,1834.95 1728.28,1805.11 1723,1756.5C 1722.33,1696.5 1722.33,1636.5 1723,1576.5C 1724.45,1572.37 1727.29,1570.04 1731.5,1569.5 Z"/></g>
<g><path style="opacity:0.987" fill="#232f3e" d="M 2026.5,1569.5 C 2047.17,1569.33 2067.84,1569.5 2088.5,1570C 2093.05,1570.36 2096.89,1572.19 2100,1575.5C 2130.33,1630.17 2160.67,1684.83 2191,1739.5C 2191.33,1685.17 2191.67,1630.83 2192,1576.5C 2193.49,1572 2196.66,1569.83 2201.5,1570C 2217.17,1569.33 2232.83,1569.33 2248.5,1570C 2251.46,1570.23 2253.96,1571.4 2256,1573.5C 2257.66,1661.42 2257.99,1749.42 2257,1837.5C 2255.27,1840.95 2252.44,1842.79 2248.5,1843C 2227.83,1843.67 2207.17,1843.67 2186.5,1843C 2183.25,1842.75 2180.25,1841.75 2177.5,1840C 2145.95,1785.08 2114.79,1729.91 2084,1674.5C 2083.67,1728.83 2083.33,1783.17 2083,1837.5C 2081.27,1840.95 2078.44,1842.79 2074.5,1843C 2058.5,1843.67 2042.5,1843.67 2026.5,1843C 2022.06,1842.87 2019.23,1840.7 2018,1836.5C 2017.33,1749.83 2017.33,1663.17 2018,1576.5C 2019.45,1572.37 2022.29,1570.04 2026.5,1569.5 Z"/></g>
<g><path style="opacity:0.985" fill="#232f3e" d="M 2325.5,1569.5 C 2344.84,1569.33 2364.17,1569.5 2383.5,1570C 2388.9,1569.77 2392.07,1572.27 2393,1577.5C 2393.67,1663.5 2393.67,1749.5 2393,1835.5C 2392.34,1840.42 2389.5,1842.92 2384.5,1843C 2364.83,1843.67 2345.17,1843.67 2325.5,1843C 2321.06,1842.87 2318.23,1840.7 2317,1836.5C 2316.33,1749.83 2316.33,1663.17 2317,1576.5C 2318.45,1572.37 2321.29,1570.04 2325.5,1569.5 Z"/></g>
<g><path style="opacity:0.982" fill="#232f3e" d="M 2435.5,1569.5 C 2509.2,1569.02 2582.87,1569.52 2656.5,1571C 2659.38,1572.59 2660.88,1575.09 2661,1578.5C 2661.67,1592.83 2661.67,1607.17 2661,1621.5C 2660.83,1627 2658,1629.83 2652.5,1630C 2629.17,1630.5 2605.84,1630.67 2582.5,1630.5C 2582.67,1698.83 2582.5,1767.17 2582,1835.5C 2581.34,1840.42 2578.5,1842.92 2573.5,1843C 2553.83,1843.67 2534.17,1843.67 2514.5,1843C 2510.06,1842.87 2507.23,1840.7 2506,1836.5C 2505.5,1767.83 2505.33,1699.17 2505.5,1630.5C 2481.83,1630.67 2458.16,1630.5 2434.5,1630C 2430.47,1629.57 2427.97,1627.41 2427,1623.5C 2426.33,1607.83 2426.33,1592.17 2427,1576.5C 2428.45,1572.37 2431.29,1570.04 2435.5,1569.5 Z"/></g>
<g><path style="opacity:0.982" fill="#232f3e" d="M 2693.5,1569.5 C 2713.84,1569.33 2734.17,1569.5 2754.5,1570C 2761.04,1570.35 2765.54,1573.51 2768,1579.5C 2782.67,1614.17 2797.33,1648.83 2812,1683.5C 2827.59,1648.65 2842.92,1613.65 2858,1578.5C 2860.69,1572.82 2865.19,1569.99 2871.5,1570C 2890.5,1569.33 2909.5,1569.33 2928.5,1570C 2935.36,1570.88 2937.86,1574.71 2936,1581.5C 2907.78,1634.95 2878.78,1687.95 2849,1740.5C 2848.67,1772.5 2848.33,1804.5 2848,1836.5C 2846.81,1840.69 2843.98,1842.86 2839.5,1843C 2819.83,1843.67 2800.17,1843.67 2780.5,1843C 2777.26,1842.77 2774.76,1841.27 2773,1838.5C 2771.69,1805.55 2771.03,1772.55 2771,1739.5C 2742.67,1687.5 2714.33,1635.5 2686,1583.5C 2683.17,1575.76 2685.67,1571.1 2693.5,1569.5 Z"/></g>
<g><path style="opacity:0.99" fill="#232f3e" d="M 3053.5,1569.5 C 3088.17,1569.33 3122.83,1569.5 3157.5,1570C 3234.28,1573.79 3276.12,1613.95 3283,1690.5C 3286.35,1725.1 3280.01,1757.77 3264,1788.5C 3243.7,1820.42 3214.54,1838.25 3176.5,1842C 3135.52,1843.59 3094.52,1843.92 3053.5,1843C 3050.54,1842.77 3048.04,1841.6 3046,1839.5C 3044.34,1751.58 3044.01,1663.58 3045,1575.5C 3046.94,1572.12 3049.78,1570.12 3053.5,1569.5 Z M 3120.5,1629.5 C 3133.5,1629.33 3146.5,1629.5 3159.5,1630C 3180.14,1633.63 3193.64,1645.47 3200,1665.5C 3206.85,1691.42 3207.18,1717.42 3201,1743.5C 3193.3,1770.19 3175.46,1783.69 3147.5,1784C 3138.51,1784.5 3129.51,1784.67 3120.5,1784.5C 3120.5,1732.83 3120.5,1681.17 3120.5,1629.5 Z"/></g>
<g><path style="opacity:0.986" fill="#232f3e" d="M 3396.5,1569.5 C 3419.5,1569.33 3442.5,1569.5 3465.5,1570C 3468.82,1570.06 3471.66,1571.23 3474,1573.5C 3506.16,1660.31 3537.33,1747.48 3567.5,1835C 3567.2,1837.92 3565.87,1840.26 3563.5,1842C 3551.22,1843.13 3538.89,1843.63 3526.5,1843.5C 3514.11,1843.63 3501.78,1843.13 3489.5,1842C 3487.67,1840.83 3486.17,1839.33 3485,1837.5C 3479.99,1821.96 3475.49,1806.29 3471.5,1790.5C 3443.5,1790.5 3415.5,1790.5 3387.5,1790.5C 3383.78,1807.17 3378.94,1823.5 3373,1839.5C 3372.1,1840.7 3370.93,1841.53 3369.5,1842C 3347.22,1843.62 3324.88,1843.96 3302.5,1843C 3297.45,1842.4 3295.12,1839.57 3295.5,1834.5C 3324.96,1748.61 3355.13,1662.95 3386,1577.5C 3387.85,1572.51 3391.35,1569.84 3396.5,1569.5 Z M 3428.5,1638.5 C 3438.43,1670.88 3447.76,1703.54 3456.5,1736.5C 3438.5,1736.5 3420.5,1736.5 3402.5,1736.5C 3411.37,1703.88 3420.04,1671.22 3428.5,1638.5 Z"/></g>
<g><path style="opacity:0.982" fill="#232f3e" d="M 3555.5,1569.5 C 3576.17,1569.33 3596.84,1569.5 3617.5,1570C 3624.75,1571.25 3629.59,1575.41 3632,1582.5C 3646.33,1616.5 3660.67,1650.5 3675,1684.5C 3690.47,1648.42 3706.14,1612.42 3722,1576.5C 3724.74,1572.38 3728.57,1570.21 3733.5,1570C 3752.83,1569.33 3772.17,1569.33 3791.5,1570C 3796.15,1570.65 3798.82,1573.32 3799.5,1578C 3798.73,1581.63 3797.57,1585.13 3796,1588.5C 3768,1639.17 3740,1689.83 3712,1740.5C 3711.67,1772.17 3711.33,1803.83 3711,1835.5C 3710.34,1840.42 3707.5,1842.92 3702.5,1843C 3682.83,1843.67 3663.17,1843.67 3643.5,1843C 3639.06,1842.87 3636.23,1840.7 3635,1836.5C 3634.67,1804.17 3634.33,1771.83 3634,1739.5C 3606.25,1688.34 3578.25,1637.34 3550,1586.5C 3545.3,1578.36 3547.13,1572.7 3555.5,1569.5 Z"/></g>
<g><path style="opacity:0.962" fill="#fe9900" d="M 1849.5,1942.5 C 1877.17,1942.5 1904.83,1942.5 1932.5,1942.5C 1932.5,1949.83 1932.5,1957.17 1932.5,1964.5C 1923.17,1964.5 1913.83,1964.5 1904.5,1964.5C 1904.5,1989.17 1904.5,2013.83 1904.5,2038.5C 1895.17,2038.5 1885.83,2038.5 1876.5,2038.5C 1876.5,2013.83 1876.5,1989.17 1876.5,1964.5C 1867.5,1964.5 1858.5,1964.5 1849.5,1964.5C 1849.5,1957.17 1849.5,1949.83 1849.5,1942.5 Z"/></g>
<g><path style="opacity:0.968" fill="#fe9900" d="M 1964.5,1942.5 C 1974.85,1942.17 1985.19,1942.5 1995.5,1943.5C 2006.74,1975.05 2018.07,2006.55 2029.5,2038C 2019.17,2038.5 2008.84,2038.67 1998.5,2038.5C 1997.22,2032.55 1995.55,2026.71 1993.5,2021C 1984.17,2020.33 1974.83,2020.33 1965.5,2021C 1963.92,2026.5 1962.25,2032 1960.5,2037.5C 1950.86,2038.5 1941.19,2038.83 1931.5,2038.5C 1942.5,2006.5 1953.5,1974.5 1964.5,1942.5 Z M 1978.5,1969.5 C 1979.97,1970.35 1980.8,1971.68 1981,1973.5C 1983.27,1982.43 1985.77,1991.26 1988.5,2000C 1982.5,2000.67 1976.5,2000.67 1970.5,2000C 1973.71,1989.99 1976.38,1979.82 1978.5,1969.5 Z"/></g>
<g><path style="opacity:0.953" fill="#fe9900" d="M 2046.5,1942.5 C 2055.83,1942.5 2065.17,1942.5 2074.5,1942.5C 2074.5,1974.5 2074.5,2006.5 2074.5,2038.5C 2065.17,2038.5 2055.83,2038.5 2046.5,2038.5C 2046.5,2006.5 2046.5,1974.5 2046.5,1942.5 Z"/></g>
<g><path style="opacity:0.966" fill="#fe9900" d="M 2092.5,1942.5 C 2102.52,1942.17 2112.52,1942.5 2122.5,1943.5C 2126.11,1963.47 2129.61,1983.47 2133,2003.5C 2137.81,1984.3 2142.31,1964.97 2146.5,1945.5C 2155.83,1944.17 2165.17,1944.17 2174.5,1945.5C 2178.56,1965.33 2183.06,1985 2188,2004.5C 2191.44,1983.81 2194.94,1963.14 2198.5,1942.5C 2208.17,1942.5 2217.83,1942.5 2227.5,1942.5C 2219.48,1974.58 2211.15,2006.58 2202.5,2038.5C 2192.5,2038.5 2182.5,2038.5 2172.5,2038.5C 2168.66,2018.78 2164.49,1999.11 2160,1979.5C 2155.51,1999.11 2151.34,2018.78 2147.5,2038.5C 2137.5,2038.5 2127.5,2038.5 2117.5,2038.5C 2109.17,2006.51 2100.84,1974.51 2092.5,1942.5 Z"/></g>
<g><path style="opacity:0.968" fill="#fe9900" d="M 2262.5,1942.5 C 2272.85,1942.17 2283.19,1942.5 2293.5,1943.5C 2304.74,1975.05 2316.07,2006.55 2327.5,2038C 2317.17,2038.5 2306.84,2038.67 2296.5,2038.5C 2295.22,2032.55 2293.55,2026.71 2291.5,2021C 2282.17,2020.33 2272.83,2020.33 2263.5,2021C 2261.92,2026.5 2260.25,2032 2258.5,2037.5C 2248.86,2038.5 2239.19,2038.83 2229.5,2038.5C 2240.5,2006.5 2251.5,1974.5 2262.5,1942.5 Z M 2276.5,1969.5 C 2277.97,1970.35 2278.8,1971.68 2279,1973.5C 2281.27,1982.43 2283.77,1991.26 2286.5,2000C 2280.5,2000.67 2274.5,2000.67 2268.5,2000C 2271.71,1989.99 2274.38,1979.82 2276.5,1969.5 Z"/></g>
<g><path style="opacity:0.966" fill="#fe9900" d="M 2343.5,1942.5 C 2353.19,1942.17 2362.86,1942.5 2372.5,1943.5C 2383,1962.5 2393.5,1981.5 2404,2000.5C 2404.5,1981.17 2404.67,1961.84 2404.5,1942.5C 2412.5,1942.5 2420.5,1942.5 2428.5,1942.5C 2428.5,1974.5 2428.5,2006.5 2428.5,2038.5C 2418.83,2038.67 2409.16,2038.5 2399.5,2038C 2388.62,2019.74 2378.12,2001.24 2368,1982.5C 2367.5,2001.16 2367.33,2019.83 2367.5,2038.5C 2359.5,2038.5 2351.5,2038.5 2343.5,2038.5C 2343.5,2006.5 2343.5,1974.5 2343.5,1942.5 Z"/></g>
<g><path style="opacity:0.916" fill="#252f3e" d="M 737.5,1984.5 C 982.167,1984.5 1226.83,1984.5 1471.5,1984.5C 1471.5,1987.5 1471.5,1990.5 1471.5,1993.5C 1226.83,1993.5 982.167,1993.5 737.5,1993.5C 737.5,1990.5 737.5,1987.5 737.5,1984.5 Z"/></g>
<g><path style="opacity:0.916" fill="#252f3e" d="M 2797.5,1984.5 C 3042.17,1984.5 3286.83,1984.5 3531.5,1984.5C 3531.5,1987.5 3531.5,1990.5 3531.5,1993.5C 3286.83,1993.5 3042.17,1993.5 2797.5,1993.5C 2797.5,1990.5 2797.5,1987.5 2797.5,1984.5 Z"/></g>
</svg>
